<?xml version="1.0"?>
<svg width="611.999" height="611.999" xmlns="http://www.w3.org/2000/svg" xmlns:svg="http://www.w3.org/2000/svg" version="1.1" xml:space="preserve">
 <g class="layer">
  <title>Layer 1</title>
  <g id="svg_1">
   <g id="svg_2">
    <g id="svg_3">
     <path d="m570.11,500.25c-65.04,-29.37 -67.51,-155.44 -67.56,-158.62l0,-84.58c0,-81.4 -49.74,-151.4 -120.43,-181.2c-0.15,-41.85 -34.24,-75.85 -76.12,-75.85c-41.88,0 -75.97,34 -76.12,75.85c-70.68,29.8 -120.43,99.8 -120.43,181.2l0,84.58c-0.04,3.18 -2.52,129.25 -67.56,158.62c-7.41,3.35 -11.48,11.41 -9.76,19.36c1.71,7.95 8.74,13.63 16.87,13.63l164.88,0c3.38,18.59 12.17,35.89 25.62,49.9c17.86,18.61 41.47,28.86 66.5,28.86c25.02,0 48.64,-10.25 66.5,-28.86c13.45,-14.01 22.24,-31.31 25.62,-49.9l164.88,0c8.13,0 15.16,-5.68 16.87,-13.63c1.72,-7.95 -2.35,-16.01 -9.76,-19.36zm-85.68,-60.39c6.84,20.73 16.52,41.54 30.25,58.86l-417.36,0c13.73,-17.32 23.41,-38.13 30.24,-58.86l356.87,0zm-178.43,-405.35c18.95,0 34.96,12.73 39.98,30.09c-12.92,-2.68 -26.29,-4.09 -39.98,-4.09s-27.06,1.41 -39.97,4.09c5.01,-17.35 21.03,-30.08 39.97,-30.08l0,-0.01zm-162.03,307.23l0,-84.69c0,-89.34 72.69,-162.03 162.03,-162.03s162.03,72.69 162.03,162.03l0,84.83c0.03,2.59 0.43,29.88 7.3,63.46l-338.67,0c6.88,-33.62 7.29,-60.95 7.31,-63.6zm162.03,235.75c-26.34,0 -49.33,-19 -56.71,-44.25l113.42,0c-7.38,25.25 -30.37,44.25 -56.71,44.25z" id="svg_4"/>
     <path d="m306,119.23c-74.25,0 -134.66,60.41 -134.66,134.66c0,9.53 7.73,17.26 17.26,17.26c9.53,0 17.26,-7.73 17.26,-17.26c0,-55.22 44.92,-100.14 100.14,-100.14c9.53,0 17.26,-7.73 17.26,-17.26c0,-9.53 -7.73,-17.26 -17.26,-17.26z" id="svg_5"/>
    </g>
   </g>
  </g>
  <ellipse cx="425" cy="113.4" fill="#FF0000" id="svg_6" rx="63" ry="62" stroke="#000000"/>
 </g>
</svg>